#!OML:ASF H:\Dans Jumps\Project 1\Capture day 1\Session 1\subject.ASF
:FULLY-SPECIFIED
:DEGREES
384
root 0.484374 23.75 -4.46232 9.6296 -0.321805 -0.474821
lowerback 11.5806 -0.149184 -3.07998
upperback 3.50474 -0.490271 1.60258
thorax -2.78385 -0.245056 3.47591
lowerneck -10.9571 0.534766 -2.35791
upperneck 25.3297 1.16702 0.326746
head 9.80768 0.348994 0.650112
rclavicle -5.96354e-015 1.2921e-014
rhumerus -28.3362 -8.57545 -78.77
rradius 24.4679
rwrist 39.6666
rhand -17.0844 -23.7885
rfingers 7.12502
rthumb 9.15386 -53.5698
lclavicle -5.96354e-015 1.2921e-014
lhumerus -26.5262 -6.2408 83.8134
lradius 15.386
lwrist 15.2651
lhand -22.4333 -4.59405
lfingers 7.12502
lthumb 3.99031 25.3483
rfemur -42.5224 -11.5742 24.0698
rtibia 60.3067
rfoot 14.3276 -0.287251
rtoes 18.9194
lfemur -43.4013 13.765 -21.3661
ltibia 58.3901
lfoot 15.0295 -0.0541705
ltoes 2.32154
385
root 0.487998 23.632 -4.32289 9.73689 -0.392763 -0.473563
lowerback 11.7451 -0.13711 -3.02684
upperback 3.55869 -0.473094 1.58101
thorax -2.81977 -0.236656 3.42263
lowerneck -11.0336 0.554245 -2.29991
upperneck 25.3114 1.19505 0.282543
head 9.81611 0.362446 0.628339
rclavicle 1.49089e-015 8.94531e-016
rhumerus -28.7006 -8.52728 -79.0522
rradius 24.4651
rwrist 39.6438
rhand -17.0454 -23.7899
rfingers 7.12502
rthumb 9.19153 -53.5696
lclavicle 1.49089e-015 8.94531e-016
lhumerus -26.962 -5.95262 84.1392
lradius 15.1165
lwrist 15.0113
lhand -22.6442 -5.05985
lfingers 7.12502
lthumb 3.78666 24.8862
rfemur -42.7207 -11.3858 24.1507
rtibia 57.6309
rfoot 14.434 -0.569439
rtoes 18.9916
lfemur -43.6689 13.7892 -21.5418
ltibia 56.38
lfoot 15.0724 -0.449342
ltoes 1.82444
386
root 0.491936 23.5018 -4.17865 9.86014 -0.466944 -0.45072
lowerback 11.8346 -0.128229 -2.9946
upperback 3.60486 -0.460593 1.55879
thorax -2.82206 -0.231102 3.38015
lowerneck -11.0805 0.572441 -2.26493
upperneck 25.2775 1.22087 0.254896
head 9.81303 0.37476 0.615754
rclavicle 7.20594e-015 2.18663e-015
rhumerus -29.1124 -8.33983 -79.3553
rradius 24.55
rwrist 39.4629
rhand -17.0413 -23.7966
rfingers 7.12502
rthumb 9.19545 -53.5761
lclavicle 7.20594e-015 2.18663e-015
lhumerus -27.4201 -5.67016 84.4485
lradius 14.8517
lwrist 14.6423
lhand -22.8093 -5.44337
lfingers 7.12502
lthumb 3.62726 24.5055
rfemur -42.8369 -11.1832 24.1768
rtibia 54.8177
rfoot 14.651 -0.864269
rtoes 19.0476
lfemur -43.8403 13.8106 -21.7349
ltibia 54.1723
lfoot 15.1757 -0.924415
ltoes 1.33252
387
root 0.496099 23.3592 -4.02958 10.005 -0.535855 -0.416155
lowerback 11.8376 -0.123146 -2.97002
upperback 3.6424 -0.451727 1.53902
thorax -2.78564 -0.227955 3.34397
lowerneck -11.0937 0.583208 -2.24524
upperneck 25.2308 1.23678 0.23382
head 9.79895 0.38201 0.606668
rclavicle 4.42296e-015 -1.0635e-014
rhumerus -29.57 -8.06606 -79.6624
rradius 24.7073
rwrist 39.1647
rhand -17.0431 -23.8056
rfingers 7.12502
rthumb 9.19379 -53.5852
lclavicle 4.42296e-015 -1.0635e-014
lhumerus -27.89 -5.36628 84.7304
lradius 14.5976
lwrist 14.1791
lhand -22.9274 -5.75926
lfingers 7.12502
lthumb 3.51318 24.1915
rfemur -42.8822 -10.9772 24.1625
rtibia 51.886
rfoot 14.9926 -1.13389
rtoes 19.0075
lfemur -43.9242 13.8215 -21.934
ltibia 51.7787
lfoot 15.3501 -1.46319
ltoes 0.848522
388
root 0.500329 23.2041 -3.87508 10.1676 -0.602624 -0.37283
lowerback 11.742 -0.118759 -2.95108
upperback 3.67705 -0.441845 1.52289
thorax -2.69844 -0.225218 3.3134
lowerneck -11.0754 0.585796 -2.251
upperneck 25.1808 1.24112 0.230997
head 9.77748 0.383695 0.606754
rclavicle -7.45443e-016 -1.98785e-015
rhumerus -30.05 -7.76347 -79.9543
rradius 24.9
rwrist 38.7992
rhand -17.0418 -23.8099
rfingers 7.12502
rthumb 9.19504 -53.5895
lclavicle -7.45443e-016 -1.98785e-015
lhumerus -28.345 -5.01705 84.974
lradius 14.3497
lwrist 13.668
lhand -22.9223 -5.89048
lfingers 7.12502
lthumb 3.51816 24.0602
rfemur -42.8556 -10.7693 24.1091
rtibia 48.8597
rfoot 15.4789 -1.34046
rtoes 18.865
lfemur -43.9103 13.8236 -22.1319
ltibia 49.2102
lfoot 15.6063 -2.03919
ltoes 0.357312
389
root 0.504695 23.0366 -3.71467 10.3502 -0.657614 -0.322946
lowerback 11.5402 -0.113226 -2.92834
upperback 3.70004 -0.427325 1.50986
thorax -2.56572 -0.22083 3.28209
lowerneck -11.0117 0.578236 -2.2611
upperneck 25.148 1.23152 0.226754
head 9.75367 0.378348 0.605337
rclavicle -6.70898e-015 2.88238e-015
rhumerus -30.5481 -7.51451 -80.1987
rradius 25.0832
rwrist 38.4372
rhand -17.0216 -23.7983
rfingers 7.12502
rthumb 9.21454 -53.577
lclavicle -6.70898e-015 2.88238e-015
lhumerus -28.8011 -4.66152 85.1942
lradius 14.1087
lwrist 13.1566
lhand -22.8999 -5.90398
lfingers 7.12502
lthumb 3.53979 24.0464
rfemur -42.7625 -10.5676 24.0155
rtibia 45.7716
rfoot 16.1118 -1.45856
rtoes 18.6339
lfemur -43.7953 13.8026 -22.3202
ltibia 46.4824
lfoot 15.9481 -2.62299
ltoes -0.14861
